<svg version="1.1"
      xmlns="http://www.w3.org/2000/svg"
      xmlns:xlink="http://www.w3.org/1999/xlink"  id="snapshot-21118" width="250" height="250" viewBox="0 0 250 250"><desc>This image was made on Patterninja.com</desc><defs>
<!-- image 93302 -->
<g id="transformed-93302" data-image="93302" transform="translate(96.98485196156165, 217.5695790674067) rotate(324, 33.015148038438355, 31.430420932593318)"><g><svg version="1.1" width="66.03029607687671px" height="62.860841865186636px" viewBox="0 0 66.03029607687671 62.860841865186636"><g id="original-93302"><svg xmlns="http://www.w3.org/2000/svg" fill="#000000" viewBox="-1 0 20 20" xmlns:xlink="http://www.w3.org/1999/xlink" version="1.1" preserveAspectRatio="xMidYMid meet">
  <path d="M14.435 6H5.812l.206 2h8.212c-.12 1.752-.484 5.464-.618 7.153l-4.613 1.298v.004l-.01.005-4.615-1.624L4.058 11H6.32l.16 2.063L8.993 14H9l2.51-.9.258-3.1h-7.81c-.038-.401-.524-5.608-.608-6h11.288c-.063.66-.127 1.338-.202 2zM0 0l1.638 18.148L8.99 20l7.37-1.889L18 0H0z" fill-rule="evenodd" fill="rgba(42, 157, 143, 0.2)" stroke="none"/>
</svg>
</g></svg></g></g>
<!-- /image 93302 -->

<!-- image 34340 -->
<g id="transformed-34340" data-image="34340" transform="translate(-28.410882339705477, -26.410882339705484) rotate(35, 29.410882339705477, 29.410882339705484)"><g><svg version="1.1" width="58.821764679410954px" height="58.82176467941097px" viewBox="0 0 58.821764679410954 58.82176467941097"><g id="original-34340"><svg xmlns="http://www.w3.org/2000/svg" fill="#ffffff" stroke="#ffffff" viewBox="0 0 32 32" xmlns:xlink="http://www.w3.org/1999/xlink" version="1.1" preserveAspectRatio="xMidYMid meet">
  <path d="M24.235 6.519l-16.47-.004.266 3.277 12.653.002-.319 3.394h-8.298l.3 3.215h7.725l-.457 4.403-3.636 1.005-3.694-1.012-.235-2.637H8.808l.362 4.817 6.829 2.128 6.714-1.912L24.234 6.52zM2.879 1.004h26.242L26.734 27.95l-10.763 3.045-10.703-3.047z" fill="rgba(38, 70, 83, 0.2)" stroke="none"/>
</svg>
</g></svg></g></g>
<!-- /image 34340 -->

<!-- image 59218 -->
<g id="transformed-59218" data-image="59218" transform="translate(-18.832867780352597, 102.59910987310428) rotate(320, 29.832867780352597, 28.40089012689572)"><g><svg version="1.1" width="59.665735560705194px" height="56.80178025379144px" viewBox="0 0 59.665735560705194 56.80178025379144"><g id="original-59218"><svg xmlns="http://www.w3.org/2000/svg" fill="#000000" viewBox="-1 0 20 20" xmlns:xlink="http://www.w3.org/1999/xlink" version="1.1" preserveAspectRatio="xMidYMid meet">
  <path d="M14.435 6H5.812l.206 2h8.212c-.12 1.752-.484 5.464-.618 7.153l-4.613 1.298v.004l-.01.005-4.615-1.624L4.058 11H6.32l.16 2.063L8.993 14H9l2.51-.9.258-3.1h-7.81c-.038-.401-.524-5.608-.608-6h11.288c-.063.66-.127 1.338-.202 2zM0 0l1.638 18.148L8.99 20l7.37-1.889L18 0H0z" fill-rule="evenodd" fill="rgba(42, 157, 143, 0.5)" stroke="none"/>
</svg>
</g></svg></g></g>
<!-- /image 59218 -->

<!-- image 67758 -->
<g id="transformed-67758" data-image="67758" transform="translate(97.52049869174367, 95.52049869174365) rotate(41, 30.479501308256335, 30.479501308256342)"><g><svg version="1.1" width="60.95900261651267px" height="60.959002616512684px" viewBox="0 0 60.95900261651267 60.959002616512684"><g id="original-67758"><svg xmlns="http://www.w3.org/2000/svg" fill="#ffffff" stroke="#ffffff" viewBox="0 0 32 32" xmlns:xlink="http://www.w3.org/1999/xlink" version="1.1" preserveAspectRatio="xMidYMid meet">
  <path d="M24.235 6.519l-16.47-.004.266 3.277 12.653.002-.319 3.394h-8.298l.3 3.215h7.725l-.457 4.403-3.636 1.005-3.694-1.012-.235-2.637H8.808l.362 4.817 6.829 2.128 6.714-1.912L24.234 6.52zM2.879 1.004h26.242L26.734 27.95l-10.763 3.045-10.703-3.047z" fill="rgba(38, 70, 83, 0.5)" stroke="none"/>
</svg>
</g></svg></g></g>
<!-- /image 67758 -->
</defs><rect x="0" y="0" width="250" height="250" fill="rgba(255, 255, 255, 0.011627906976744186)"></rect><use xlink:href="#transformed-93302" transform="translate(-250, -250)"></use><use xlink:href="#transformed-93302" transform="translate(0, -250)"></use><use xlink:href="#transformed-93302" transform="translate(250, -250)"></use><use xlink:href="#transformed-93302" transform="translate(-250, 0)"></use><use xlink:href="#transformed-93302" transform="translate(0, 0)"></use><use xlink:href="#transformed-93302" transform="translate(250, 0)"></use><use xlink:href="#transformed-93302" transform="translate(-250, 250)"></use><use xlink:href="#transformed-93302" transform="translate(0, 250)"></use><use xlink:href="#transformed-93302" transform="translate(250, 250)"></use><use xlink:href="#transformed-34340" transform="translate(-250, -250)"></use><use xlink:href="#transformed-34340" transform="translate(0, -250)"></use><use xlink:href="#transformed-34340" transform="translate(250, -250)"></use><use xlink:href="#transformed-34340" transform="translate(-250, 0)"></use><use xlink:href="#transformed-34340" transform="translate(0, 0)"></use><use xlink:href="#transformed-34340" transform="translate(250, 0)"></use><use xlink:href="#transformed-34340" transform="translate(-250, 250)"></use><use xlink:href="#transformed-34340" transform="translate(0, 250)"></use><use xlink:href="#transformed-34340" transform="translate(250, 250)"></use><use xlink:href="#transformed-59218" transform="translate(-250, -250)"></use><use xlink:href="#transformed-59218" transform="translate(0, -250)"></use><use xlink:href="#transformed-59218" transform="translate(250, -250)"></use><use xlink:href="#transformed-59218" transform="translate(-250, 0)"></use><use xlink:href="#transformed-59218" transform="translate(0, 0)"></use><use xlink:href="#transformed-59218" transform="translate(250, 0)"></use><use xlink:href="#transformed-59218" transform="translate(-250, 250)"></use><use xlink:href="#transformed-59218" transform="translate(0, 250)"></use><use xlink:href="#transformed-59218" transform="translate(250, 250)"></use><use xlink:href="#transformed-67758" transform="translate(-250, -250)"></use><use xlink:href="#transformed-67758" transform="translate(0, -250)"></use><use xlink:href="#transformed-67758" transform="translate(250, -250)"></use><use xlink:href="#transformed-67758" transform="translate(-250, 0)"></use><use xlink:href="#transformed-67758" transform="translate(0, 0)"></use><use xlink:href="#transformed-67758" transform="translate(250, 0)"></use><use xlink:href="#transformed-67758" transform="translate(-250, 250)"></use><use xlink:href="#transformed-67758" transform="translate(0, 250)"></use><use xlink:href="#transformed-67758" transform="translate(250, 250)"></use></svg>